<svg width="396" height="112" viewBox="0 0 396 112" fill="none" xmlns="http://www.w3.org/2000/svg">
<path d="M107.828 74.7812C104.547 74.7812 101.604 74.2604 99 73.2188C96.3958 72.151 94.1823 70.6797 92.3594 68.8047C90.5625 66.9297 89.1823 64.7552 88.2188 62.2812C87.2552 59.7812 86.7734 57.125 86.7734 54.3125V52.75C86.7734 49.5469 87.2292 46.6172 88.1406 43.9609C89.0521 41.3047 90.3542 39 92.0469 37.0469C93.7656 35.0938 95.849 33.5964 98.2969 32.5547C100.745 31.487 103.505 30.9531 106.578 30.9531C109.573 30.9531 112.229 31.4479 114.547 32.4375C116.865 33.4271 118.805 34.8333 120.367 36.6562C121.956 38.4792 123.154 40.6667 123.961 43.2188C124.768 45.7448 125.172 48.5573 125.172 51.6562V56.3438H91.5781V48.8438H114.117V47.9844C114.117 46.4219 113.831 45.0286 113.258 43.8047C112.711 42.5547 111.878 41.5651 110.758 40.8359C109.638 40.1068 108.206 39.7422 106.461 39.7422C104.977 39.7422 103.701 40.0677 102.633 40.7188C101.565 41.3698 100.693 42.2812 100.016 43.4531C99.3646 44.625 98.8698 46.0052 98.5312 47.5938C98.2188 49.1562 98.0625 50.875 98.0625 52.75V54.3125C98.0625 56.0052 98.2969 57.5677 98.7656 59C99.2604 60.4323 99.9505 61.6693 100.836 62.7109C101.747 63.7526 102.841 64.5599 104.117 65.1328C105.419 65.7057 106.891 65.9922 108.531 65.9922C110.562 65.9922 112.451 65.6016 114.195 64.8203C115.966 64.013 117.49 62.8021 118.766 61.1875L124.234 67.125C123.349 68.401 122.138 69.625 120.602 70.7969C119.091 71.9688 117.268 72.9323 115.133 73.6875C112.997 74.4167 110.562 74.7812 107.828 74.7812ZM151.031 74.7812C147.75 74.7812 144.807 74.2604 142.203 73.2188C139.599 72.151 137.385 70.6797 135.562 68.8047C133.766 66.9297 132.385 64.7552 131.422 62.2812C130.458 59.7812 129.977 57.125 129.977 54.3125V52.75C129.977 49.5469 130.432 46.6172 131.344 43.9609C132.255 41.3047 133.557 39 135.25 37.0469C136.969 35.0938 139.052 33.5964 141.5 32.5547C143.948 31.487 146.708 30.9531 149.781 30.9531C152.776 30.9531 155.432 31.4479 157.75 32.4375C160.068 33.4271 162.008 34.8333 163.57 36.6562C165.159 38.4792 166.357 40.6667 167.164 43.2188C167.971 45.7448 168.375 48.5573 168.375 51.6562V56.3438H134.781V48.8438H157.32V47.9844C157.32 46.4219 157.034 45.0286 156.461 43.8047C155.914 42.5547 155.081 41.5651 153.961 40.8359C152.841 40.1068 151.409 39.7422 149.664 39.7422C148.18 39.7422 146.904 40.0677 145.836 40.7188C144.768 41.3698 143.896 42.2812 143.219 43.4531C142.568 44.625 142.073 46.0052 141.734 47.5938C141.422 49.1562 141.266 50.875 141.266 52.75V54.3125C141.266 56.0052 141.5 57.5677 141.969 59C142.464 60.4323 143.154 61.6693 144.039 62.7109C144.951 63.7526 146.044 64.5599 147.32 65.1328C148.622 65.7057 150.094 65.9922 151.734 65.9922C153.766 65.9922 155.654 65.6016 157.398 64.8203C159.169 64.013 160.693 62.8021 161.969 61.1875L167.438 67.125C166.552 68.401 165.341 69.625 163.805 70.7969C162.294 71.9688 160.471 72.9323 158.336 73.6875C156.201 74.4167 153.766 74.7812 151.031 74.7812ZM195.484 31.7344V39.7031H170.875V31.7344H195.484ZM176.969 21.3047H188.219V61.2656C188.219 62.4896 188.375 63.4271 188.688 64.0781C189.026 64.7292 189.521 65.1849 190.172 65.4453C190.823 65.6797 191.643 65.7969 192.633 65.7969C193.336 65.7969 193.961 65.7708 194.508 65.7188C195.081 65.6406 195.562 65.5625 195.953 65.4844L195.992 73.7656C195.029 74.0781 193.987 74.3255 192.867 74.5078C191.747 74.6901 190.51 74.7812 189.156 74.7812C186.682 74.7812 184.521 74.3776 182.672 73.5703C180.849 72.737 179.443 71.4089 178.453 69.5859C177.464 67.763 176.969 65.3672 176.969 62.3984V21.3047ZM224.703 64.4688V45.6406C224.703 44.2865 224.482 43.1276 224.039 42.1641C223.596 41.1745 222.906 40.4062 221.969 39.8594C221.057 39.3125 219.872 39.0391 218.414 39.0391C217.164 39.0391 216.083 39.2604 215.172 39.7031C214.26 40.1198 213.557 40.7318 213.062 41.5391C212.568 42.3203 212.32 43.2448 212.32 44.3125H201.07C201.07 42.5156 201.487 40.8099 202.32 39.1953C203.154 37.5807 204.365 36.1615 205.953 34.9375C207.542 33.6875 209.43 32.7109 211.617 32.0078C213.831 31.3047 216.305 30.9531 219.039 30.9531C222.32 30.9531 225.237 31.5 227.789 32.5938C230.341 33.6875 232.346 35.3281 233.805 37.5156C235.289 39.7031 236.031 42.4375 236.031 45.7188V63.8047C236.031 66.1224 236.174 68.0234 236.461 69.5078C236.747 70.9661 237.164 72.2422 237.711 73.3359V74H226.344C225.797 72.8542 225.38 71.4219 225.094 69.7031C224.833 67.9583 224.703 66.2135 224.703 64.4688ZM226.188 48.2578L226.266 54.625H219.977C218.492 54.625 217.203 54.7943 216.109 55.1328C215.016 55.4714 214.117 55.9531 213.414 56.5781C212.711 57.1771 212.19 57.8802 211.852 58.6875C211.539 59.4948 211.383 60.3802 211.383 61.3438C211.383 62.3073 211.604 63.1797 212.047 63.9609C212.49 64.7161 213.128 65.3151 213.961 65.7578C214.794 66.1745 215.771 66.3828 216.891 66.3828C218.583 66.3828 220.055 66.0443 221.305 65.3672C222.555 64.6901 223.518 63.8568 224.195 62.8672C224.898 61.8776 225.263 60.9401 225.289 60.0547L228.258 64.8203C227.841 65.888 227.268 66.9948 226.539 68.1406C225.836 69.2865 224.938 70.3672 223.844 71.3828C222.75 72.3724 221.435 73.1927 219.898 73.8438C218.362 74.4688 216.539 74.7812 214.43 74.7812C211.747 74.7812 209.312 74.2474 207.125 73.1797C204.964 72.0859 203.245 70.5885 201.969 68.6875C200.719 66.7604 200.094 64.5729 200.094 62.125C200.094 59.9115 200.51 57.9453 201.344 56.2266C202.177 54.5078 203.401 53.0625 205.016 51.8906C206.656 50.6927 208.701 49.7943 211.148 49.1953C213.596 48.5703 216.435 48.2578 219.664 48.2578H226.188ZM271.461 31.7344H281.656V72.5938C281.656 76.4479 280.797 79.7161 279.078 82.3984C277.385 85.1068 275.016 87.151 271.969 88.5312C268.922 89.9375 265.38 90.6406 261.344 90.6406C259.573 90.6406 257.698 90.4062 255.719 89.9375C253.766 89.4688 251.891 88.7396 250.094 87.75C248.323 86.7604 246.839 85.5104 245.641 84L250.602 77.3594C251.904 78.8698 253.414 80.0417 255.133 80.875C256.852 81.7344 258.753 82.1641 260.836 82.1641C262.867 82.1641 264.586 81.7865 265.992 81.0312C267.398 80.3021 268.479 79.2214 269.234 77.7891C269.99 76.3828 270.367 74.6771 270.367 72.6719V41.5L271.461 31.7344ZM243.023 53.375V52.5547C243.023 49.3255 243.414 46.3958 244.195 43.7656C245.003 41.1094 246.135 38.8307 247.594 36.9297C249.078 35.0286 250.875 33.5573 252.984 32.5156C255.094 31.474 257.477 30.9531 260.133 30.9531C262.945 30.9531 265.302 31.474 267.203 32.5156C269.104 33.5573 270.667 35.0417 271.891 36.9688C273.115 38.8698 274.065 41.1224 274.742 43.7266C275.445 46.3047 275.992 49.1302 276.383 52.2031V54C275.992 56.9427 275.406 59.6771 274.625 62.2031C273.844 64.7292 272.815 66.9427 271.539 68.8438C270.263 70.7188 268.674 72.1771 266.773 73.2188C264.898 74.2604 262.659 74.7812 260.055 74.7812C257.451 74.7812 255.094 74.2474 252.984 73.1797C250.901 72.112 249.117 70.6146 247.633 68.6875C246.148 66.7604 245.003 64.4948 244.195 61.8906C243.414 59.2865 243.023 56.4479 243.023 53.375ZM254.273 52.5547V53.375C254.273 55.1198 254.443 56.7474 254.781 58.2578C255.12 59.7682 255.641 61.1094 256.344 62.2812C257.073 63.4271 257.971 64.3255 259.039 64.9766C260.133 65.6016 261.422 65.9141 262.906 65.9141C264.964 65.9141 266.643 65.4844 267.945 64.625C269.247 63.7396 270.224 62.5286 270.875 60.9922C271.526 59.4557 271.904 57.6849 272.008 55.6797V50.5625C271.956 48.9219 271.734 47.4505 271.344 46.1484C270.953 44.8203 270.406 43.6875 269.703 42.75C269 41.8125 268.089 41.0833 266.969 40.5625C265.849 40.0417 264.521 39.7812 262.984 39.7812C261.5 39.7812 260.211 40.1198 259.117 40.7969C258.049 41.4479 257.151 42.3464 256.422 43.4922C255.719 44.638 255.185 45.9922 254.82 47.5547C254.456 49.0911 254.273 50.7578 254.273 52.5547ZM302.281 31.7344V74H290.992V31.7344H302.281ZM290.289 20.7188C290.289 19.0781 290.862 17.724 292.008 16.6562C293.154 15.5885 294.69 15.0547 296.617 15.0547C298.518 15.0547 300.042 15.5885 301.188 16.6562C302.359 17.724 302.945 19.0781 302.945 20.7188C302.945 22.3594 302.359 23.7135 301.188 24.7812C300.042 25.849 298.518 26.3828 296.617 26.3828C294.69 26.3828 293.154 25.849 292.008 24.7812C290.862 23.7135 290.289 22.3594 290.289 20.7188ZM323.453 14V74H312.164V14H323.453ZM352.203 74.7812C348.922 74.7812 345.979 74.2604 343.375 73.2188C340.771 72.151 338.557 70.6797 336.734 68.8047C334.938 66.9297 333.557 64.7552 332.594 62.2812C331.63 59.7812 331.148 57.125 331.148 54.3125V52.75C331.148 49.5469 331.604 46.6172 332.516 43.9609C333.427 41.3047 334.729 39 336.422 37.0469C338.141 35.0938 340.224 33.5964 342.672 32.5547C345.12 31.487 347.88 30.9531 350.953 30.9531C353.948 30.9531 356.604 31.4479 358.922 32.4375C361.24 33.4271 363.18 34.8333 364.742 36.6562C366.331 38.4792 367.529 40.6667 368.336 43.2188C369.143 45.7448 369.547 48.5573 369.547 51.6562V56.3438H335.953V48.8438H358.492V47.9844C358.492 46.4219 358.206 45.0286 357.633 43.8047C357.086 42.5547 356.253 41.5651 355.133 40.8359C354.013 40.1068 352.581 39.7422 350.836 39.7422C349.352 39.7422 348.076 40.0677 347.008 40.7188C345.94 41.3698 345.068 42.2812 344.391 43.4531C343.74 44.625 343.245 46.0052 342.906 47.5938C342.594 49.1562 342.438 50.875 342.438 52.75V54.3125C342.438 56.0052 342.672 57.5677 343.141 59C343.635 60.4323 344.326 61.6693 345.211 62.7109C346.122 63.7526 347.216 64.5599 348.492 65.1328C349.794 65.7057 351.266 65.9922 352.906 65.9922C354.938 65.9922 356.826 65.6016 358.57 64.8203C360.341 64.013 361.865 62.8021 363.141 61.1875L368.609 67.125C367.724 68.401 366.513 69.625 364.977 70.7969C363.466 71.9688 361.643 72.9323 359.508 73.6875C357.372 74.4167 354.938 74.7812 352.203 74.7812Z" fill="#1C2B2D"/>
<path d="M27.0423 17H9.01408L0 74H20.2817L30.4225 54.62L34.9296 64.88L45.0704 45.5H46.1972L60.8451 74H80L72.1127 17H54.0845L40.5634 32.96L27.0423 17Z" fill="#017FE3"/>
<path d="M357.576 87.3193L351.775 105H347.103L355.027 83.6719H358.001L357.576 87.3193ZM362.396 105L356.58 87.3193L356.111 83.6719H359.114L367.083 105H362.396ZM362.132 97.0605V100.503H350.867V97.0605H362.132ZM377.366 97.3975H371.932V93.9697H377.366C378.206 93.9697 378.89 93.833 379.417 93.5596C379.944 93.2764 380.33 92.8857 380.574 92.3877C380.818 91.8896 380.94 91.3281 380.94 90.7031C380.94 90.0684 380.818 89.4775 380.574 88.9307C380.33 88.3838 379.944 87.9443 379.417 87.6123C378.89 87.2803 378.206 87.1143 377.366 87.1143H373.455V105H369.061V83.6719H377.366C379.036 83.6719 380.467 83.9746 381.658 84.5801C382.859 85.1758 383.777 86.001 384.412 87.0557C385.047 88.1104 385.364 89.3164 385.364 90.6738C385.364 92.0508 385.047 93.2422 384.412 94.248C383.777 95.2539 382.859 96.0303 381.658 96.5771C380.467 97.124 379.036 97.3975 377.366 97.3975ZM393.069 83.6719V105H388.689V83.6719H393.069Z" fill="#017FE3"/>
</svg>
